<svg width="78" height="28" viewBox="0 0 78 28" fill="none" xmlns="http://www.w3.org/2000/svg">
<path d="M37.204 4.622H32.43V6.582H36.238V8.444H32.43V12H30.022V2.76H37.204V4.622Z" fill="#232323"/>
<path d="M41.0023 10.138H45.6363V12H38.5943V2.76H41.0023V10.138Z" fill="#232323"/>
<path d="M55.4161 12H52.9381L52.2941 9.914H49.1301L48.4721 12H46.0501L49.2981 2.76H52.1821L55.4161 12ZM49.5781 8.276H51.8461L50.7121 4.538L49.5781 8.276Z" fill="#232323"/>
<path d="M63.9487 2.76L60.6727 12H57.8447L54.5547 2.76H57.0887L58.7827 8.346L59.2867 10.166L59.7767 8.374L61.4987 2.76H63.9487Z" fill="#232323"/>
<path d="M67.4573 2.76V12H65.0493V2.76H67.4573Z" fill="#232323"/>
<path d="M77.9064 12H75.4284L74.7844 9.914H71.6204L70.9624 12H68.5404L71.7884 2.76H74.6724L77.9064 12ZM72.0684 8.276H74.3364L73.2024 4.538L72.0684 8.276Z" fill="#232323"/>
<path d="M36.566 17.42L32.978 21.099L32.874 21.203L30.664 23.452V22.568L35.708 17.42H36.566ZM31.002 17.42V26H30.352V17.42H31.002ZM33.03 20.67L36.657 26H35.864L32.51 21.06L33.03 20.67Z" fill="#232323"/>
<path d="M40.2358 19.37C40.8424 19.37 41.3754 19.5043 41.8348 19.773C42.3028 20.0417 42.6668 20.4317 42.9268 20.943C43.1954 21.4457 43.3298 22.048 43.3298 22.75C43.3298 23.452 43.1954 24.0587 42.9268 24.57C42.6668 25.0727 42.3028 25.4583 41.8348 25.727C41.3754 25.9957 40.8424 26.13 40.2358 26.13C39.6291 26.13 39.0918 25.9957 38.6238 25.727C38.1644 25.4583 37.8004 25.0727 37.5318 24.57C37.2718 24.0587 37.1418 23.452 37.1418 22.75C37.1418 22.048 37.2718 21.4457 37.5318 20.943C37.8004 20.4317 38.1644 20.0417 38.6238 19.773C39.0918 19.5043 39.6291 19.37 40.2358 19.37ZM40.2358 19.929C39.7418 19.929 39.3128 20.0417 38.9488 20.267C38.5848 20.4923 38.2988 20.8173 38.0908 21.242C37.8914 21.658 37.7918 22.1607 37.7918 22.75C37.7918 23.3307 37.8914 23.8333 38.0908 24.258C38.2988 24.6827 38.5848 25.0077 38.9488 25.233C39.3128 25.4583 39.7418 25.571 40.2358 25.571C40.7298 25.571 41.1588 25.4583 41.5228 25.233C41.8868 25.0077 42.1684 24.6827 42.3678 24.258C42.5758 23.8333 42.6798 23.3307 42.6798 22.75C42.6798 22.1607 42.5758 21.658 42.3678 21.242C42.1684 20.8173 41.8868 20.4923 41.5228 20.267C41.1588 20.0417 40.7298 19.929 40.2358 19.929Z" fill="#232323"/>
<path d="M47.3853 26.13C46.7266 26.13 46.1416 25.9957 45.6302 25.727C45.1276 25.4583 44.7723 25.0727 44.5643 24.57L45.1232 24.193C45.2792 24.6263 45.5566 24.9643 45.9552 25.207C46.3626 25.441 46.8566 25.558 47.4373 25.558C48.0093 25.558 48.4556 25.4453 48.7762 25.22C49.1056 24.9947 49.2703 24.6957 49.2703 24.323C49.2703 24.0717 49.1879 23.855 49.0233 23.673C48.8673 23.4823 48.5683 23.3393 48.1263 23.244L46.6053 22.919C45.9813 22.789 45.5349 22.581 45.2663 22.295C45.0063 22.0003 44.8763 21.645 44.8763 21.229C44.8763 20.8823 44.9803 20.5703 45.1883 20.293C45.3963 20.0157 45.6822 19.7947 46.0462 19.63C46.4189 19.4567 46.8522 19.37 47.3462 19.37C47.9962 19.37 48.5336 19.5 48.9583 19.76C49.3829 20.0113 49.6819 20.3927 49.8553 20.904L49.3092 21.255C49.1793 20.7957 48.9366 20.462 48.5812 20.254C48.2346 20.046 47.8229 19.942 47.3462 19.942C46.9822 19.942 46.6616 19.9983 46.3843 20.111C46.1156 20.215 45.9032 20.3623 45.7472 20.553C45.5999 20.735 45.5262 20.9473 45.5262 21.19C45.5262 21.4413 45.6129 21.671 45.7863 21.879C45.9596 22.0783 46.2673 22.2257 46.7093 22.321L48.2692 22.659C48.8846 22.789 49.3136 22.9883 49.5563 23.257C49.7989 23.517 49.9202 23.842 49.9202 24.232C49.9202 24.622 49.8162 24.96 49.6082 25.246C49.4002 25.532 49.1056 25.753 48.7243 25.909C48.3429 26.0563 47.8966 26.13 47.3853 26.13Z" fill="#232323"/>
<path d="M52.818 17.693V24.284C52.818 24.6913 52.9134 25.0033 53.104 25.22C53.3034 25.428 53.5894 25.532 53.962 25.532C54.2047 25.532 54.417 25.493 54.599 25.415C54.7897 25.3283 54.9587 25.207 55.106 25.051L55.353 25.584C55.1884 25.7487 54.9804 25.883 54.729 25.987C54.4777 26.0823 54.196 26.13 53.884 26.13C53.546 26.13 53.247 26.0693 52.987 25.948C52.727 25.818 52.5234 25.623 52.376 25.363C52.2374 25.103 52.168 24.7737 52.168 24.375V17.875L52.818 17.693ZM55.249 19.5V20.059H50.868V19.5H55.249Z" fill="#232323"/>
<path d="M56.9644 18.239C56.7998 18.239 56.6654 18.1913 56.5614 18.096C56.4661 17.992 56.4184 17.8577 56.4184 17.693C56.4184 17.5283 56.4661 17.3983 56.5614 17.303C56.6654 17.199 56.7998 17.147 56.9644 17.147C57.1291 17.147 57.2591 17.199 57.3544 17.303C57.4584 17.3983 57.5104 17.5283 57.5104 17.693C57.5104 17.8577 57.4584 17.992 57.3544 18.096C57.2591 18.1913 57.1291 18.239 56.9644 18.239ZM57.2894 19.5V26H56.6394V19.5H57.2894Z" fill="#232323"/>
<path d="M5.79025 15.9358L2.71325 22.5832L0 21.0004V8.83829L5.79025 15.9358Z" fill="#232323"/>
<path d="M7.33727 25.28L9.75714 20.7972L14.4613 26.5638L11.9997 28L7.33727 25.28Z" fill="#232323"/>
<path d="M19.5522 23.5947L21.7939 19.4726L23.1607 21.4899L19.5522 23.5947Z" fill="#232323"/>
<path d="M21.5311 19.0862L21.8064 18.585L22.0684 18.9681L21.7939 19.4726L21.5311 19.0862Z" fill="#232323"/>
<path d="M6.28012 15.8483L6.07686 16.2866L5.79025 15.9358L5.99405 15.4958L6.28012 15.8483Z" fill="#232323"/>
<path d="M6.07686 16.2866L9.51816 20.5046L7.03279 25.1025L3.05345 22.7817L6.07686 16.2866Z" fill="#232323"/>
<path d="M9.73982 20.0958L9.97799 20.3884L9.75714 20.7972L9.51816 20.5046L9.73982 20.0958Z" fill="#232323"/>
<path d="M9.73982 20.0958L6.28012 15.8483L11.5951 4.43022L15.2746 9.85827L9.73982 20.0958Z" fill="#232323"/>
<path d="M9.97799 20.3884L15.4908 10.1763L21.5311 19.0862L18.8328 24.0144L14.8313 26.3481L9.97799 20.3884Z" fill="#232323"/>
<path d="M9.55767 1.42497L11.3101 4.0102L5.99405 15.4958L0 8.13606V7.00041L9.55767 1.42497Z" fill="#232323"/>
<path d="M11.5312 3.53357L11.8168 3.95277L11.5951 4.43022L11.3101 4.0102L11.5312 3.53357Z" fill="#232323"/>
<path d="M12.9186 0.536242L11.5312 3.53357L9.93847 1.20183L11.9997 0L12.9186 0.536242Z" fill="#232323"/>
<path d="M15.5287 9.38875L15.7447 9.70596L15.4908 10.1763L15.2746 9.85827L15.5287 9.38875Z" fill="#232323"/>
<path d="M18.5418 3.81577L15.5287 9.38875L11.8168 3.95277L13.3026 0.760201L18.5418 3.81577Z" fill="#232323"/>
<path d="M24 7.00041V14.5786L21.8064 18.585L15.7447 9.70596L18.8328 3.98641L24 7.00041Z" fill="#232323"/>
<path d="M23.6105 21.2277L22.0684 18.9681L24 15.4154V21.0004L23.6105 21.2277Z" fill="#232323"/>
</svg>
