<svg fill="#272722" id="Layer_1" data-name="Layer 1" xmlns="http://www.w3.org/2000/svg" viewBox="0 0 886.76 1023.94">
<title>logo</title>
<polygon class="cls-1" points="213.94 582.76 100.25 825.85 0 767.97 0 323.21 213.94 582.76"/>
<polygon class="cls-1" points="271.1 924.47 360.51 760.54 534.32 971.42 443.37 1023.94 271.1 924.47"/>
<polygon class="cls-1" points="722.42 862.84 805.25 712.1 855.75 785.87 722.42 862.84"/>
<polygon class="cls-1" points="795.54 697.97 805.71 679.64 815.39 693.65 805.25 712.1 795.54 697.97"/>
<polygon class="cls-1" points="232.04 579.56 224.53 595.59 213.94 582.76 221.47 566.67 232.04 579.56"/>
<polygon class="cls-1" points="224.53 595.59 351.68 749.84 259.85 917.98 112.82 833.11 224.53 595.59"/>
<polygon class="cls-1" points="359.87 734.89 368.67 745.59 360.51 760.54 351.68 749.84 359.87 734.89"/>
<polygon class="cls-1" points="359.87 734.89 232.04 579.56 428.42 162.01 564.37 360.51 359.87 734.89"/>
<polygon class="cls-1" points="368.67 745.59 572.36 372.14 795.54 697.97 695.84 878.19 547.99 963.53 368.67 745.59"/>
<polygon class="cls-1" points="353.14 52.11 417.89 146.65 221.47 566.67 0 297.53 0 256 353.14 52.11"/>
<polygon class="cls-1" points="426.06 129.22 436.61 144.55 428.42 161.98 417.89 146.65 426.06 129.22"/>
<polygon class="cls-1" points="477.32 19.61 426.06 129.22 367.21 43.95 443.37 0 477.32 19.61"/>
<polygon class="cls-1" points="573.76 343.34 581.74 354.94 572.36 372.14 564.37 360.51 573.76 343.34"/>
<polygon class="cls-1" points="685.09 139.54 573.76 343.34 436.61 144.55 491.51 27.8 685.09 139.54"/>
<polygon class="cls-1" points="886.76 256 886.76 533.13 805.71 679.64 581.74 354.94 695.84 145.78 886.76 256"/>
<polygon class="cls-1" points="872.37 776.28 815.39 693.65 886.76 563.73 886.76 767.97 872.37 776.28"/>
</svg>